<?xml version="1.0" encoding="UTF-8" standalone="no"?>
<svg
   xmlns:dc="http://purl.org/dc/elements/1.1/"
   xmlns:cc="http://creativecommons.org/ns#"
   xmlns:rdf="http://www.w3.org/1999/02/22-rdf-syntax-ns#"
   xmlns:svg="http://www.w3.org/2000/svg"
   xmlns="http://www.w3.org/2000/svg"
   xmlns:sodipodi="http://sodipodi.sourceforge.net/DTD/sodipodi-0.dtd"
   xmlns:inkscape="http://www.inkscape.org/namespaces/inkscape"
   sodipodi:docname="Divi's Laboratories Logo.svg"
   inkscape:version="1.0 (4035a4fb49, 2020-05-01)"
   id="svg2682"
   version="1.1"
   viewBox="0 0 19.909999 12.215"
   height="12.215mm"
   width="19.91mm">
  <defs
     id="defs2676" />
  <sodipodi:namedview
     inkscape:window-maximized="0"
     inkscape:window-y="0"
     inkscape:window-x="122"
     inkscape:window-height="1030"
     inkscape:window-width="1375"
     showgrid="false"
     inkscape:document-rotation="0"
     inkscape:current-layer="layer1"
     inkscape:document-units="mm"
     inkscape:cy="-1.3967923"
     inkscape:cx="77.124116"
     inkscape:zoom="256"
     inkscape:pageshadow="2"
     inkscape:pageopacity="0.0"
     borderopacity="1.0"
     bordercolor="#666666"
     pagecolor="#ffffff"
     id="base" />
  <metadata
     id="metadata2679">
    <rdf:RDF>
      <cc:Work
         rdf:about="">
        <dc:format>image/svg+xml</dc:format>
        <dc:type
           rdf:resource="http://purl.org/dc/dcmitype/StillImage" />
        <dc:title></dc:title>
      </cc:Work>
    </rdf:RDF>
  </metadata>
  <g
     id="layer1"
     inkscape:groupmode="layer"
     inkscape:label="Layer 1">
    <g
       id="g2748">
      <g
         transform="matrix(0.35277777,0,0,-0.35277777,10.438006,3.8390106)"
         id="g46">
        <path
           id="path48"
           style="fill:#ed1c24;fill-opacity:1;fill-rule:nonzero;stroke:none"
           d="M 0,0 C 0.574,-0.068 1.571,0.169 1.327,-0.718 L 0.896,-1.899 c -0.167,-0.404 -0.109,-0.49 -0.543,-0.5 l -1.107,-0.09 c -0.568,-0.012 -0.45,0.115 -0.341,0.508 l 0.532,1.297 C -0.506,-0.322 -0.475,-0.009 0,0" />
      </g>
      <g
         transform="matrix(0.35277777,0,0,-0.35277777,9.7527082,5.1755096)"
         id="g50">
        <path
           id="path52"
           style="fill:#ed1c24;fill-opacity:1;fill-rule:nonzero;stroke:none"
           d="M 0,0 -1.904,-5.237 C -3.74,-8.493 0.12,-8.074 1.574,-6.033 1.753,-5.788 1.754,-5.483 1.372,-5.597 0.664,-5.817 0.068,-6.03 0.38,-4.882 l 1.75,4.523 C 2.236,0.428 1.229,0.234 0.726,0.236 0.339,0.243 0.239,0.396 0,0" />
      </g>
      <g
         transform="matrix(0.35277777,0,0,-0.35277777,11.646096,5.3650566)"
         id="g54">
        <path
           id="path56"
           style="fill:#ed1c24;fill-opacity:1;fill-rule:nonzero;stroke:none"
           d="m 0,0 c -0.193,-1.146 -1.224,-4.986 0.066,-5.676 1.949,1.905 4.622,7.048 1.906,9.343 0.119,0.38 0.148,0.907 0.657,0.884 L 4.93,4.435 C 5.468,4.411 5.52,4.243 5.493,3.878 5.216,0.147 3.591,-4.271 0.93,-6.702 c -2.9,-1.637 -2.703,4.199 -2.604,5.746 -0.05,0.269 -0.05,0.232 -0.3,0.283 -0.813,0.119 -0.69,0.67 -0.384,1.211 C -1.802,0.52 0.137,0.821 0,0" />
      </g>
      <g
         transform="matrix(0.35277777,0,0,-0.35277777,14.399596,3.8410566)"
         id="g58">
        <path
           id="path60"
           style="fill:#ed1c24;fill-opacity:1;fill-rule:nonzero;stroke:none"
           d="M 0,0 C 0.576,-0.066 1.572,0.171 1.327,-0.717 L 0.897,-1.895 C 0.728,-2.302 0.788,-2.388 0.356,-2.397 L -0.751,-2.49 c -0.569,-0.008 -0.451,0.117 -0.343,0.508 l 0.533,1.298 C -0.504,-0.321 -0.473,-0.008 0,0" />
      </g>
      <g
         transform="matrix(0.35277777,0,0,-0.35277777,13.714606,5.1919136)"
         id="g62">
        <path
           id="path64"
           style="fill:#ed1c24;fill-opacity:1;fill-rule:nonzero;stroke:none"
           d="m 0,0 -1.901,-5.234 c -1.838,-3.26 2.022,-2.838 3.476,-0.801 0.178,0.25 0.18,0.555 -0.197,0.436 C 0.664,-5.817 0.073,-6.031 0.381,-4.88 l 1.751,4.522 C 2.237,0.431 1.228,0.233 0.728,0.238 0.341,0.242 0.24,0.395 0,0" />
      </g>
      <g
         transform="matrix(0.35277777,0,0,-0.35277777,16.547236,6.1745406)"
         id="g66">
        <path
           id="path68"
           style="fill:#ed1c24;fill-opacity:1;fill-rule:nonzero;stroke:none"
           d="M 0,0 C 0.714,0.416 0.668,1.643 0.312,2.326 -1.739,4.139 -6.482,1.814 -4.905,-0.911 -4.392,-2.373 -3.558,-3.544 -3.22,-5.14 -3.243,-6.261 -4.03,-6.215 -4.964,-6.27 -11.13,-6.296 -17.299,-6.309 -23.47,-6.32 l -0.249,-0.006 c -0.488,-0.045 -0.683,-0.178 -0.988,-0.586 -0.183,-0.239 -0.36,-0.444 -0.567,-0.65 -0.246,-0.25 -0.111,-0.361 0.192,-0.411 7.393,0.123 14.79,0.211 22.183,0.368 1.783,0.234 2.65,2.207 1.867,3.665 -0.497,1.336 -1.063,2.585 -1.678,3.874 l -0.353,0.718 c -1.005,1.412 1.739,1.894 1.63,0.73 C -1.729,0.094 -1.393,-0.205 0,0" />
      </g>
      <g
         transform="matrix(0.35277777,0,0,-0.35277777,19.397756,6.1080066)"
         id="g70">
        <path
           id="path72"
           style="fill:#ed1c24;fill-opacity:1;fill-rule:nonzero;stroke:none"
           d="m 0,0 c 0,-4.288 -2.94,-8.203 -7.692,-11.064 -4.868,-2.931 -11.611,-4.746 -19.071,-4.746 -7.46,0 -14.205,1.815 -19.071,4.746 -4.751,2.861 -7.692,6.776 -7.692,11.064 0,4.286 2.941,8.202 7.696,11.064 4.866,2.931 11.609,4.745 19.067,4.745 7.458,0 14.202,-1.814 19.07,-4.745 C -2.94,8.199 0,4.286 0,0 m 1.433,0 c 0,4.851 -3.215,9.213 -8.408,12.339 -5.077,3.057 -12.076,4.949 -19.788,4.949 -7.713,0 -14.715,-1.892 -19.789,-4.949 -5.151,-3.105 -8.355,-7.422 -8.405,-12.226 v -0.227 c 0.05,-4.804 3.254,-9.123 8.407,-12.225 5.075,-3.056 12.075,-4.949 19.787,-4.949 7.714,0 14.711,1.893 19.788,4.949 5.192,3.126 8.408,7.488 8.408,12.339" />
      </g>
      <g
         transform="matrix(0.35277777,0,0,-0.35277777,5.5485084,5.0054346)"
         id="g74">
        <path
           id="path76"
           style="fill:#ed1c24;fill-opacity:1;fill-rule:nonzero;stroke:none"
           d="M 0,0 C 0.028,0.113 -0.594,0.003 -1.075,0.228 -4.815,1.964 8.639,7.484 7.72,-2.481 7.418,-5.77 4.099,-9.846 0.361,-7.592 0.014,-7.382 0.025,-7.156 0.235,-6.834 1.339,-5.13 3.793,-0.861 4.336,1.28 L 1.755,1.199 C 1,-1.124 -0.035,-3.513 -1.458,-5.85 c -1.743,1.562 -3.216,0.545 -4.296,-0.546 -1.866,-1.885 -1.284,-4.787 3.159,-2.849 1.132,-0.607 2.107,-1.469 3.527,-1.121 5.25,0.149 12.001,6.806 8.511,12.876 C 6.476,6.528 -2.129,5.528 -4.001,1.097 -4.463,0.003 -4.528,-0.936 -3.655,-1.825 -2.424,-3.088 -0.516,-2.064 0,0 m -4.91,-7.328 c 0.098,-1.844 2.399,-1.091 0.849,0.513 -0.49,0.208 -0.857,0.02 -0.849,-0.513" />
      </g>
      <g
         transform="matrix(0.35277777,0,0,-0.35277777,3.8162284,7.590521)"
         id="g78">
        <path
           id="path80"
           style="fill:#ed1c24;fill-opacity:1;fill-rule:nonzero;stroke:none"
           d="M 0,0 C 0.099,-1.844 2.399,-1.092 0.849,0.513 0.359,0.721 -0.008,0.533 0,0" />
      </g>
      <g
         transform="matrix(0.35277777,0,0,-0.35277777,3.8162284,7.590521)"
         id="g82">
        <path
           id="path84"
           style="fill:#ffffff;fill-opacity:1;fill-rule:nonzero;stroke:none"
           d="M 0,0 C 0.099,-1.844 2.399,-1.092 0.849,0.513 0.359,0.721 -0.008,0.533 0,0" />
      </g>
    </g>
  </g>
</svg>
