<?xml version="1.0" encoding="UTF-8"?> <svg xmlns="http://www.w3.org/2000/svg" xmlns:xlink="http://www.w3.org/1999/xlink" xml:space="preserve" width="2100px" height="705px" version="1.1" style="shape-rendering:geometricPrecision; text-rendering:geometricPrecision; image-rendering:optimizeQuality; fill-rule:evenodd; clip-rule:evenodd" viewBox="0 0 2100 705"> <defs> <style type="text/css"> .fil0 {fill:none} .fil2 {fill:#FAA841;fill-rule:nonzero} .fil3 {fill:#5ABF98;fill-rule:nonzero} .fil1 {fill:black;fill-rule:nonzero} </style> </defs> <g id="Layer_x0020_1"> <metadata id="CorelCorpID_0Corel-Layer"></metadata> <polygon class="fil0" points="0,0 2100,0 2100,705 0,705 "></polygon> <g id="_2438624621136"> <path class="fil1" d="M260 234l-30 0 0 -4 28 0 32 0 30 0 0 4 -28 0 79 218 51 -139 -29 -79 -28 0 0 -4 27 0 32 0 31 0 0 4 -30 0 79 218 81 -218 -34 0 0 -4 35 0 0 0 6 0 0 0 29 0 0 4 -31 0 -100 269 -66 -182 -68 182 -98 -269zm407 90c-6,0 -13,1 -20,3 -7,2 -14,6 -20,13 -6,6 -12,15 -16,27 -4,12 -6,27 -6,46 0,19 2,34 6,46 4,11 10,20 16,27 6,6 13,10 20,13 7,2 14,3 20,3 6,0 13,-1 20,-3 7,-2 14,-6 21,-13 6,-6 12,-15 16,-27 4,-11 6,-27 6,-46 0,-19 -2,-34 -6,-46 -4,-12 -10,-21 -16,-27 -6,-6 -13,-10 -21,-13 -7,-2 -14,-3 -20,-3zm0 180c-13,0 -25,-2 -36,-7 -11,-5 -21,-11 -29,-20 -8,-8 -15,-18 -20,-29 -5,-11 -7,-23 -7,-36 0,-13 2,-25 7,-36 5,-11 11,-21 20,-29 8,-8 18,-15 29,-20 11,-5 23,-7 36,-7 13,0 25,2 36,7 11,5 21,11 29,20 8,8 15,18 20,29 5,11 7,23 7,36 0,13 -2,25 -7,36 -5,11 -11,21 -20,29 -8,8 -18,15 -29,20 -11,5 -23,7 -36,7zm268 -8l0 -135c0,-6 0,-11 -1,-15 -1,-5 -2,-8 -5,-12 -2,-3 -5,-6 -10,-8 -4,-2 -9,-3 -16,-3 -14,0 -28,5 -41,14 -13,9 -23,24 -31,43l0 115 31 0 0 4 -31 0 -27 0 -31 0 0 -4 31 0 0 -261 -31 0 0 -4 58 -3 0 3 0 4 0 136c3,-7 7,-14 12,-20 5,-6 10,-12 17,-16 6,-5 13,-8 21,-11 8,-3 16,-4 24,-4 10,0 19,1 26,3 7,2 13,5 17,9 4,4 8,9 10,14 2,6 3,12 3,18l0 131 31 0 0 4 -31 0 -27 0 -31 0 0 -4 31 0zm112 4c-5,0 -10,-2 -13,-6 -4,-4 -6,-8 -6,-13l0 -245 -31 0 0 -4 58 -3 0 7 0 248c0,3 1,6 4,9 3,3 5,4 9,4l11 0 0 4 -31 0zm143 1c-14,0 -27,-2 -38,-6 -11,-4 -20,-10 -28,-16 -8,-6 -14,-13 -19,-21 -5,-8 -7,-15 -8,-21 -1,-6 0,-12 2,-16 2,-4 7,-6 13,-6 7,0 12,2 15,6 3,4 6,9 7,15 2,6 3,13 5,20 1,7 4,14 7,20 3,6 9,11 15,15 7,4 16,6 29,6 4,0 8,0 13,-1 5,0 10,-1 16,-3 6,-1 11,-3 17,-6 6,-3 10,-6 15,-10 4,-4 8,-9 10,-15 3,-6 4,-13 4,-22 0,-10 -4,-19 -12,-26 -8,-7 -18,-14 -30,-20 -12,-6 -25,-12 -39,-17 -14,-5 -27,-12 -39,-19 -12,-7 -22,-16 -30,-26 -8,-10 -12,-22 -12,-37 0,-10 2,-19 6,-28 4,-8 10,-15 16,-21 7,-6 15,-10 24,-13 9,-3 19,-4 29,-4 16,0 30,1 41,4 11,3 20,7 28,11 7,5 12,10 15,15 3,5 5,10 5,15 0,5 -1,8 -3,11 -2,3 -6,4 -10,4 -4,0 -7,-1 -10,-4 -2,-3 -5,-6 -7,-11 -2,-4 -5,-9 -7,-14 -3,-5 -6,-10 -10,-14 -4,-4 -10,-8 -16,-11 -7,-3 -15,-4 -26,-4 -9,0 -17,1 -24,4 -7,3 -13,6 -17,11 -5,5 -8,10 -10,16 -2,6 -4,13 -4,21 0,9 2,16 7,23 5,7 11,12 18,18 8,5 16,10 26,14 10,4 19,9 30,13 10,4 20,9 30,13 10,4 18,9 26,15 8,6 14,12 18,19 5,7 7,15 7,25 0,12 -2,23 -7,33 -5,10 -11,18 -20,24 -8,6 -18,11 -30,15 -12,3 -24,5 -38,5zm133 -173l-30 0 0 -4c14,0 25,-2 32,-5 8,-3 13,-7 16,-12 3,-5 5,-11 6,-17 1,-6 1,-12 1,-18l4 0 0 48 0 4 58 0 0 4 -58 0 0 75c0,16 0,31 1,43 0,12 2,22 4,30 2,8 6,14 11,18 5,4 12,6 21,6 9,0 16,-2 22,-6 5,-4 9,-9 12,-15 3,-6 4,-12 5,-18 1,-6 1,-11 1,-15l4 0c0,4 0,10 -1,16 -1,6 -2,13 -5,19 -3,6 -8,11 -14,16 -6,4 -15,6 -27,6 -12,0 -22,-2 -30,-6 -8,-4 -14,-10 -19,-17 -5,-8 -8,-17 -10,-29 -2,-11 -3,-25 -3,-40l0 -85zm192 169c8,0 15,-1 21,-3 6,-2 11,-4 15,-8 4,-3 7,-7 9,-11 2,-4 3,-8 3,-13l0 -76c-3,4 -7,7 -13,9 -6,2 -12,4 -19,5 -7,1 -14,3 -21,5 -7,2 -14,4 -19,8 -6,3 -10,8 -14,14 -4,6 -6,14 -6,24 0,8 1,15 4,21 3,6 6,10 10,14 4,4 9,6 14,8 5,2 10,2 16,2zm75 -13c0,3 1,6 4,9 3,3 6,4 9,4l10 0 0 4 -31 0c-5,0 -9,-2 -13,-5 -4,-3 -6,-7 -6,-12 -5,5 -11,10 -19,14 -8,4 -18,6 -30,6 -24,0 -42,-4 -53,-13 -11,-9 -17,-23 -17,-41 0,-11 3,-20 9,-27 6,-6 13,-11 22,-15 9,-4 18,-6 28,-8 10,-2 20,-3 28,-5 9,-2 16,-4 22,-7 6,-3 9,-8 9,-14 0,-18 -4,-31 -11,-38 -7,-8 -17,-11 -29,-11 -8,0 -15,1 -20,3 -5,2 -10,5 -13,8 -3,3 -6,7 -8,11 -2,4 -4,7 -5,11 -2,3 -4,6 -6,8 -2,2 -5,3 -8,3 -5,0 -8,-3 -9,-8 -1,-5 1,-10 6,-16 5,-6 12,-11 22,-16 10,-5 24,-8 40,-8 15,0 26,2 35,5 9,3 16,8 20,13 5,5 8,11 9,18 1,6 2,12 2,18l0 109zm63 16l-31 0 0 -4 31 0 0 -169 -31 0 0 -4 58 -4 0 4 0 4 0 44c3,-7 7,-14 12,-20 5,-6 10,-12 17,-16 6,-5 13,-8 21,-11 8,-3 16,-4 24,-4 10,0 19,1 26,3 7,2 13,5 17,9 4,4 8,9 10,14 2,6 3,12 3,18l0 131 31 0 0 4 -31 0 -27 0 -31 0 0 -4 31 0 0 -135c0,-5 0,-11 -1,-15 -1,-5 -2,-8 -5,-12 -2,-3 -5,-6 -10,-8 -4,-2 -9,-3 -16,-3 -14,0 -28,5 -41,14 -13,9 -23,24 -31,43l0 115 31 0 0 4 -31 0 -27 0zm285 0c6,0 13,-1 20,-3 7,-2 14,-6 20,-13 6,-6 11,-15 15,-27 4,-11 6,-27 6,-46 0,-19 -2,-34 -6,-46 -4,-12 -9,-20 -15,-27 -6,-6 -13,-10 -20,-13 -7,-2 -14,-3 -20,-3 -6,0 -13,1 -19,3 -6,2 -12,6 -17,13 -5,6 -9,15 -12,27 -3,12 -5,27 -5,46 0,19 2,34 5,46 3,11 7,20 12,27 5,6 11,10 17,13 6,2 13,3 19,3zm87 -16c0,3 1,6 4,9 3,3 6,4 9,4l18 0 0 4 -38 0c-6,0 -10,-2 -14,-6 -4,-4 -6,-8 -6,-13l0 -18c-6,12 -13,22 -23,29 -10,7 -22,11 -37,11 -13,0 -24,-2 -34,-7 -10,-5 -19,-11 -26,-20 -7,-8 -13,-18 -16,-29 -4,-11 -6,-23 -6,-36 0,-13 2,-25 6,-36 4,-11 9,-21 16,-29 7,-8 16,-15 26,-20 10,-5 22,-7 34,-7 14,0 27,4 37,11 10,8 18,18 24,30l0 -126 -32 0 0 -3 57 -4 0 7 1 248z"></path> <polygon class="fil2" points="308,504 275,504 176,231 208,231 "></polygon> <g> <path class="fil3" d="M425 103c-5,0 -9,-4 -9,-9 0,-5 4,-9 9,-9 5,0 9,4 9,9 0,5 -4,9 -9,9z"></path> <path class="fil2" d="M303 91c-7,0 -13,-6 -13,-13 0,-7 6,-13 13,-13 7,0 13,6 13,13 0,7 -6,13 -13,13z"></path> <path class="fil2" d="M308 597c0,21 -17,39 -38,39 -21,0 -39,-17 -39,-38 0,-21 17,-39 38,-39 21,0 39,17 39,38z"></path> <path class="fil3" d="M435 597c0,24 -19,43 -43,43 -24,0 -43,-19 -43,-43 0,-24 19,-43 43,-43 24,0 43,19 43,43z"></path> <path class="fil2" d="M102 228c-12,0 -22,-10 -22,-21 0,-12 10,-22 21,-22 12,0 22,10 22,21 0,12 -10,22 -21,22z"></path> <path class="fil3" d="M91 323c0,14 -11,26 -26,26 -14,0 -26,-11 -26,-26 0,-14 11,-26 26,-26 14,0 26,11 26,26z"></path> <path class="fil2" d="M86 414c17,0 30,13 30,30 0,17 -13,30 -30,30 -17,0 -30,-13 -30,-30 0,-17 13,-30 30,-30z"></path> <path class="fil3" d="M187 135c-10,0 -17,-8 -17,-17 0,-10 8,-17 17,-17 10,0 17,8 17,17 0,10 -8,17 -17,17z"></path> <path class="fil3" d="M193 543c0,19 -15,34 -34,34 -19,0 -34,-15 -34,-34 0,-19 15,-34 34,-34 19,0 34,15 34,34z"></path> </g> <path class="fil2" d="M1007 138c0,-12 0,-14 0,-17 0,-3 1,-4 3,-5 1,0 2,0 3,0 1,0 1,0 1,-1 0,-1 -1,-1 -2,-1 -3,0 -9,0 -11,0 -2,0 -7,0 -11,0 -1,0 -2,0 -2,1 0,1 0,1 1,1 1,0 2,0 3,0 3,1 3,2 3,5 0,3 0,5 0,17l0 14c0,7 0,14 0,17 0,2 -1,4 -2,4 -1,0 -2,0 -3,0 -1,0 -1,0 -1,1 0,1 1,1 2,1 2,0 4,0 5,0 2,0 4,0 5,0 3,0 6,0 10,0 4,0 8,0 13,0 4,0 5,0 5,-2 1,-2 1,-8 1,-9 0,-1 0,-1 -1,-1 -1,0 -1,0 -1,1 0,2 -1,4 -2,5 -2,2 -5,2 -9,2 -6,0 -8,-1 -10,-2 -2,-1 -2,-7 -2,-17l0 -14zm50 14c0,8 0,14 0,17 0,2 -1,4 -2,4 -1,0 -2,0 -3,0 -1,0 -1,0 -1,1 0,1 1,1 2,1 3,0 8,0 10,0 2,0 7,0 12,0 1,0 2,0 2,-1 0,0 0,-1 -1,-1 -1,0 -3,0 -4,0 -2,0 -3,-2 -3,-4 0,-3 0,-10 0,-17l0 -14c0,-12 0,-14 0,-17 0,-3 1,-4 3,-5 1,0 2,0 2,0 1,0 1,0 1,-1 0,0 -1,-1 -2,-1 -3,0 -8,0 -10,0 -2,0 -7,0 -10,0 -1,0 -2,0 -2,1 0,1 0,1 1,1 1,0 2,0 3,0 2,0 3,2 3,4 0,3 0,5 0,17l0 14zm61 19c2,4 2,5 3,5 1,0 2,-1 4,-6 2,-4 5,-13 11,-24 4,-10 6,-14 10,-22 2,-5 3,-6 4,-7 1,-1 3,-1 4,-1 1,0 1,0 1,-1 0,-1 -1,-1 -2,-1 -2,0 -6,0 -7,0 -1,0 -4,0 -8,0 -2,0 -2,0 -2,1 0,1 1,1 1,1 1,0 2,0 3,0 1,0 1,1 1,2 0,1 0,2 -1,3 -2,5 -12,31 -16,40l0 0 -14 -36c-1,-3 -2,-5 -2,-6 0,-1 0,-1 1,-2 1,0 2,-1 3,-1 1,0 1,0 1,-1 0,-1 -1,-1 -2,-1 -4,0 -8,0 -10,0 -3,0 -7,0 -12,0 -1,0 -2,0 -2,1 0,0 0,1 1,1 1,0 2,0 3,0 3,1 4,2 6,6l20 49zm57 -19c0,7 0,14 0,17 0,2 -1,4 -2,4 -1,0 -2,0 -3,0 -1,0 -1,0 -1,1 0,1 1,1 2,1 2,0 4,0 6,0 2,0 4,0 5,0 2,0 5,0 8,0 3,0 8,0 14,0 3,0 4,0 4,-2 0,-2 1,-7 1,-9 0,-1 0,-1 -1,-1 -1,0 -1,0 -1,1 -1,3 -2,5 -4,6 -2,1 -5,1 -7,1 -8,0 -9,-1 -10,-7 0,-2 0,-10 0,-12l0 -6c0,0 0,-1 0,-1 2,0 10,0 11,0 3,0 4,2 4,3 0,1 0,2 0,3 0,0 0,1 1,1 1,0 1,-1 1,-2 0,-1 0,-4 0,-5 0,-4 1,-5 1,-6 0,0 0,-1 -1,-1 0,0 -1,0 -1,1 -1,1 -2,1 -4,1 -2,0 -11,0 -13,0 0,0 -1,0 -1,-1l0 -20c0,-1 0,-1 1,-1 2,0 10,0 11,0 4,0 5,1 5,3 0,1 0,2 0,3 0,1 0,1 1,1 1,0 1,0 1,-1 0,-1 0,-4 0,-5 0,-4 1,-5 1,-5 0,0 0,-1 0,-1 0,0 -1,0 -1,0 -1,0 -2,0 -3,0 -2,0 -17,0 -20,0 -1,0 -3,0 -5,0 -2,0 -4,0 -6,0 -1,0 -2,0 -2,1 0,1 0,1 1,1 1,0 2,0 3,0 3,1 3,2 3,5 0,3 0,5 0,17l0 14zm98 0c0,8 0,14 0,17 0,2 -1,4 -2,4 -1,0 -2,0 -3,0 -1,0 -1,0 -1,1 0,1 1,1 2,1 3,0 8,0 10,0 2,0 7,0 12,0 1,0 2,0 2,-1 0,0 0,-1 -1,-1 -1,0 -3,0 -4,0 -2,0 -3,-2 -3,-4 0,-3 0,-10 0,-17l0 -14c0,-12 0,-14 0,-17 0,-3 1,-4 3,-5 1,0 2,0 2,0 1,0 1,0 1,-1 0,0 -1,-1 -2,-1 -3,0 -8,0 -10,0 -2,0 -7,0 -10,0 -1,0 -2,0 -2,1 0,1 0,1 1,1 1,0 2,0 3,0 2,0 3,2 3,4 0,3 0,5 0,17l0 14zm52 -21l0 0c1,2 10,11 19,20 8,8 18,19 23,23 1,1 2,2 3,2 1,0 1,-1 1,-2l1 -50c0,-4 1,-6 3,-7 1,0 2,0 2,0 1,0 1,0 1,-1 0,-1 -1,-1 -2,-1 -4,0 -7,0 -8,0 -2,0 -5,0 -10,0 -1,0 -2,0 -2,1 0,0 0,1 1,1 1,0 3,0 4,0 2,1 3,2 3,7l1 36 0 0c-1,-1 -12,-13 -18,-18 -12,-12 -24,-24 -25,-25 -1,-1 -2,-2 -3,-2 -1,0 -1,1 -1,3l-1 47c0,7 0,9 -2,10 -1,0 -3,0 -4,0 -1,0 -1,0 -1,1 0,1 1,1 2,1 4,0 8,0 9,0 2,0 5,0 10,0 1,0 2,0 2,-1 0,0 0,-1 -1,-1 -1,0 -3,0 -4,-1 -2,-1 -3,-3 -3,-9l-1 -33zm87 0l0 0c1,2 10,11 19,20 8,8 18,19 23,23 1,1 2,2 3,2 1,0 1,-1 1,-2l1 -50c0,-4 1,-6 3,-7 1,0 2,0 2,0 1,0 1,0 1,-1 0,-1 -1,-1 -2,-1 -4,0 -7,0 -8,0 -2,0 -5,0 -10,0 -1,0 -2,0 -2,1 0,0 0,1 1,1 1,0 3,0 4,0 2,1 3,2 3,7l1 36 0 0c-1,-1 -12,-13 -18,-18 -12,-12 -24,-24 -25,-25 -1,-1 -2,-2 -3,-2 -1,0 -1,1 -1,3l-1 47c0,7 0,9 -2,10 -1,0 -3,0 -4,0 -1,0 -1,0 -1,1 0,1 1,1 2,1 4,0 8,0 9,0 2,0 5,0 10,0 1,0 2,0 2,-1 0,0 0,-1 -1,-1 -1,0 -3,0 -4,-1 -2,-1 -3,-3 -3,-9l-1 -33zm106 45c20,0 33,-14 33,-33 0,-18 -12,-30 -32,-30 -24,0 -33,18 -33,31 0,14 9,31 32,31zm3 -4c-15,0 -24,-13 -24,-30 0,-20 10,-25 20,-25 13,0 23,11 23,29 0,23 -13,26 -18,26zm72 -1c2,4 2,5 3,5 1,0 2,-1 4,-6 2,-4 5,-13 11,-24 4,-10 6,-14 10,-22 2,-5 3,-6 4,-7 1,-1 3,-1 4,-1 1,0 1,0 1,-1 0,-1 -1,-1 -2,-1 -2,0 -6,0 -7,0 -1,0 -4,0 -8,0 -2,0 -2,0 -2,1 0,1 1,1 1,1 1,0 2,0 3,0 1,0 1,1 1,2 0,1 0,2 -1,3 -2,5 -12,31 -16,40l0 0 -14 -36c-1,-3 -2,-5 -2,-6 0,-1 0,-1 1,-2 1,0 2,-1 3,-1 1,0 1,0 1,-1 0,-1 -1,-1 -2,-1 -4,0 -8,0 -10,0 -3,0 -7,0 -12,0 -1,0 -2,0 -2,1 0,0 0,1 1,1 1,0 2,0 3,0 3,1 4,2 6,6l20 49zm73 -17c0,0 1,0 1,1l6 17c0,1 0,2 -1,2 -1,0 -1,0 -1,1 0,1 1,1 2,1 6,0 12,0 15,0 3,0 4,0 4,-1 0,-1 0,-1 -1,-1 -1,0 -2,0 -3,0 -2,0 -4,-2 -7,-9 -5,-12 -18,-44 -20,-49 -1,-2 -1,-3 -2,-3 -1,0 -1,1 -2,3l-20 50c-2,4 -3,7 -7,7 -1,0 -2,0 -2,0 -1,0 -1,0 -1,1 0,1 0,1 2,1 4,0 9,0 9,0 2,0 6,0 8,0 1,0 1,0 1,-1 0,0 0,-1 -1,-1l-1 0c-2,0 -3,-1 -3,-2 0,-1 0,-3 1,-5l4 -11c0,0 0,-1 1,-1l18 0zm-16 -4c0,0 0,0 0,-1l7 -20c0,0 0,-1 0,-1 0,0 0,0 0,1l7 20c0,0 0,0 0,0l-15 0zm68 2c0,7 0,14 0,17 0,2 -1,4 -2,4 -1,0 -2,0 -3,0 -1,0 -1,0 -1,1 0,1 1,1 2,1 3,0 8,0 10,0 2,0 7,0 13,0 1,0 2,0 2,-1 0,0 0,-1 -1,-1 -1,0 -3,0 -4,0 -2,0 -3,-2 -3,-4 0,-3 0,-10 0,-17l0 -33 10 0c7,0 9,2 9,4l0 1c0,1 0,2 1,2 0,0 1,0 1,-1 0,-2 0,-8 0,-9 0,-1 0,-2 -1,-2 0,0 -1,0 -2,0 -1,0 -3,0 -5,0l-32 0c-3,0 -6,0 -8,0 -2,0 -3,-1 -3,-1 0,0 -1,0 -1,2 0,1 -2,8 -2,9 0,1 0,1 1,1 0,0 1,0 1,-1 0,-1 1,-2 1,-3 1,-2 3,-2 8,-2l12 0 0 33zm58 0c0,8 0,14 0,17 0,2 -1,4 -2,4 -1,0 -2,0 -3,0 -1,0 -1,0 -1,1 0,1 1,1 2,1 3,0 8,0 10,0 2,0 7,0 12,0 1,0 2,0 2,-1 0,0 0,-1 -1,-1 -1,0 -3,0 -4,0 -2,0 -3,-2 -3,-4 0,-3 0,-10 0,-17l0 -14c0,-12 0,-14 0,-17 0,-3 1,-4 3,-5 1,0 2,0 2,0 1,0 1,0 1,-1 0,0 -1,-1 -2,-1 -3,0 -8,0 -10,0 -2,0 -7,0 -10,0 -1,0 -2,0 -2,1 0,1 0,1 1,1 1,0 2,0 3,0 2,0 3,2 3,4 0,3 0,5 0,17l0 14zm71 24c20,0 33,-14 33,-33 0,-18 -12,-30 -32,-30 -24,0 -33,18 -33,31 0,14 9,31 32,31zm3 -4c-15,0 -24,-13 -24,-30 0,-20 10,-25 20,-25 13,0 23,11 23,29 0,23 -13,26 -18,26zm62 -41l0 0c1,2 10,11 19,20 8,8 18,19 23,23 1,1 2,2 3,2 1,0 1,-1 1,-2l1 -50c0,-4 1,-6 3,-7 1,0 2,0 2,0 1,0 1,0 1,-1 0,-1 -1,-1 -2,-1 -4,0 -7,0 -8,0 -2,0 -5,0 -10,0 -1,0 -2,0 -2,1 0,0 0,1 1,1 1,0 3,0 4,0 2,1 3,2 3,7l1 36 0 0c-1,-1 -12,-13 -18,-18 -12,-12 -24,-24 -25,-25 -1,-1 -2,-2 -3,-2 -1,0 -1,1 -1,3l-1 47c0,7 0,9 -2,10 -1,0 -3,0 -4,0 -1,0 -1,0 -1,1 0,1 1,1 2,1 4,0 8,0 9,0 2,0 5,0 10,0 1,0 2,0 2,-1 0,0 0,-1 -1,-1 -1,0 -3,0 -4,-1 -2,-1 -3,-3 -3,-9l-1 -33zm91 45c4,0 9,-1 13,-3 6,-4 7,-9 7,-14 0,-8 -3,-13 -13,-20l-2 -2c-7,-5 -8,-8 -8,-11 0,-5 4,-8 9,-8 5,0 7,2 9,4 2,2 2,5 2,5 0,1 0,1 1,1 1,0 1,-1 1,-2 0,-6 0,-9 0,-10 0,-1 0,-1 -1,-1 -2,-1 -5,-1 -11,-1 -11,0 -18,6 -18,15 0,6 3,12 12,19l4 3c7,5 8,9 8,13 0,4 -4,9 -11,9 -5,0 -10,-2 -11,-8 0,-1 -1,-3 -1,-4 0,-1 0,-1 -1,-1 -1,0 -1,1 -1,2 0,1 0,6 0,10 0,2 0,2 2,3 3,2 7,2 12,2z"></path> <g> <path class="fil3" d="M552 608c0,10 0,18 -1,23 0,3 -1,5 -3,6 -1,0 -2,0 -4,0 -1,0 -2,0 -2,1 0,1 1,1 2,1 4,0 11,0 13,0 3,0 9,0 16,0 1,0 2,0 2,-1 0,-1 -1,-1 -2,-1 -2,0 -4,0 -5,0 -3,0 -4,-3 -4,-6 -1,-5 -1,-13 -1,-23l0 -42c0,-1 0,-2 1,-2 1,0 2,0 4,0 2,0 7,1 10,4 6,5 6,12 6,16 0,11 -8,17 -14,17 -2,0 -3,0 -3,1 0,1 1,1 1,1 1,0 2,0 2,0 15,0 26,-11 26,-26 0,-6 -3,-10 -5,-13 -2,-2 -6,-6 -19,-6 -5,0 -11,0 -15,0 -3,0 -9,0 -15,0 -2,0 -2,0 -2,1 0,1 1,1 2,1 1,0 3,0 4,0 3,1 4,2 4,6 0,3 0,6 0,22l0 19zm81 -16c0,0 -1,0 -1,-1l0 -2c0,-16 0,-19 0,-22 0,-4 1,-6 4,-6 1,0 2,0 3,0 1,0 2,0 2,-1 0,-1 -1,-1 -2,-1 -4,0 -11,0 -13,0 -3,0 -9,0 -15,0 -1,0 -2,0 -2,1 0,1 1,1 2,1 1,0 3,0 4,0 3,1 4,2 4,6 0,3 0,6 0,22l0 19c0,10 0,18 -1,23 0,3 -1,5 -3,6 -1,0 -2,0 -4,0 -1,0 -2,0 -2,1 0,1 1,1 2,1 4,0 11,0 13,0 3,0 9,0 16,0 1,0 2,0 2,-1 0,-1 -1,-1 -2,-1 -2,0 -4,0 -5,0 -3,0 -4,-3 -4,-6 -1,-5 -1,-13 -1,-23l0 -9c0,-1 0,-1 1,-1l40 0c0,0 1,0 1,1l0 9c0,10 0,18 -1,23 0,3 -1,5 -3,6 -1,0 -2,0 -4,0 -1,0 -2,0 -2,1 0,1 1,1 2,1 4,0 11,0 13,0 3,0 9,0 16,0 1,0 2,0 2,-1 0,-1 -1,-1 -2,-1 -2,0 -4,0 -5,0 -3,0 -4,-3 -4,-6 -1,-5 -1,-13 -1,-23l0 -19c0,-16 0,-19 0,-22 0,-4 1,-6 4,-6 1,0 2,0 3,0 1,0 2,0 2,-1 0,-1 -1,-1 -2,-1 -4,0 -11,0 -13,0 -3,0 -9,0 -15,0 -1,0 -2,0 -2,1 0,1 1,1 2,1 1,0 3,0 4,0 3,1 4,2 4,6 0,3 0,6 0,22l0 2c0,1 0,1 -1,1l-40 0zm114 19c1,0 1,0 1,1l8 22c1,1 0,2 -1,2 -1,0 -1,0 -1,1 0,1 1,1 3,1 8,0 16,0 20,0 4,0 5,0 5,-1 0,-1 -1,-1 -1,-1 -1,0 -3,0 -4,0 -2,-1 -5,-2 -9,-12 -7,-16 -23,-59 -26,-65 -1,-2 -2,-3 -3,-3 -1,0 -2,1 -3,4l-26 66c-2,5 -4,9 -9,10 -1,0 -2,0 -3,0 -1,0 -1,0 -1,1 0,1 1,1 2,1 5,0 11,0 12,0 3,0 8,0 11,0 1,0 2,0 2,-1 0,-1 0,-1 -2,-1l-2 0c-3,0 -4,-1 -4,-3 0,-1 1,-4 2,-6l6 -15c0,-1 0,-1 1,-1l23 0zm-21 -5c0,0 -1,0 0,-1l10 -26c0,0 0,-1 1,-1 0,0 0,1 1,1l9 26c0,0 0,1 -1,1l-19 0zm66 2c0,10 0,18 -1,23 0,3 -1,5 -3,6 -1,0 -2,0 -4,0 -1,0 -2,0 -2,1 0,1 1,1 2,1 4,0 11,0 13,0 2,0 9,0 15,0 1,0 2,0 2,-1 0,-1 0,-1 -1,-1 -1,0 -4,0 -5,0 -3,0 -4,-3 -4,-6 -1,-4 -1,-13 -1,-23l0 -1c0,-1 0,-1 1,-1l9 0c1,0 1,0 2,1 1,2 6,9 10,15 6,8 10,13 14,16 3,1 5,2 11,2l10 0c1,0 2,0 2,-1 0,-1 0,-1 -1,-1 -1,0 -2,0 -3,0 -2,0 -6,-1 -12,-7 -6,-7 -13,-16 -22,-28 10,-9 14,-16 14,-24 0,-7 -4,-12 -7,-15 -6,-4 -13,-5 -19,-5 -3,0 -11,0 -15,0 -2,0 -9,0 -14,0 -2,0 -2,0 -2,1 0,1 1,1 2,1 1,0 3,0 4,0 3,1 4,2 4,6 0,3 0,6 0,22l0 19zm12 -42c0,-1 0,-1 1,-1 1,0 3,0 5,0 6,0 16,4 16,19 0,9 -3,14 -6,16 -2,1 -3,2 -7,2 -3,0 -6,0 -8,-1 -1,0 -1,-1 -1,-2l0 -32zm60 63c-1,4 -1,8 -4,8 -2,0 -2,0 -3,0 -1,0 -2,0 -2,1 0,1 1,1 2,1 3,0 8,0 10,0 2,0 7,0 11,0 2,0 2,0 2,-1 0,-1 -1,-1 -2,-1 -1,0 -2,0 -4,-1 -2,0 -3,-1 -3,-3 0,-2 0,-3 0,-5l5 -42 0 0c4,8 10,21 11,24 1,3 9,19 12,24 2,3 3,5 4,5 1,0 1,-1 4,-6l23 -48 0 0 6 47c0,3 0,4 -1,5 -1,0 -1,1 -1,1 0,1 1,1 3,1 4,0 18,1 21,1 1,0 3,0 3,-1 0,-1 -1,-1 -2,-1 -1,0 -3,0 -6,-1 -3,-1 -4,-4 -5,-11l-9 -65c0,-2 -1,-3 -2,-3 -1,0 -1,1 -2,3l-28 60 -28 -60c-1,-3 -2,-3 -3,-3 -1,0 -1,1 -2,3l-10 69zm143 -17c1,0 1,0 1,1l8 22c1,1 0,2 -1,2 -1,0 -1,0 -1,1 0,1 1,1 3,1 8,0 16,0 20,0 4,0 5,0 5,-1 0,-1 -1,-1 -1,-1 -1,0 -3,0 -4,0 -2,-1 -5,-2 -9,-12 -7,-16 -23,-59 -26,-65 -1,-2 -2,-3 -3,-3 -1,0 -2,1 -3,4l-26 66c-2,5 -4,9 -9,10 -1,0 -2,0 -3,0 -1,0 -1,0 -1,1 0,1 1,1 2,1 5,0 11,0 12,0 3,0 8,0 11,0 1,0 2,0 2,-1 0,-1 0,-1 -2,-1l-2 0c-3,0 -4,-1 -4,-3 0,-1 1,-4 2,-6l6 -15c0,-1 0,-1 1,-1l23 0zm-21 -5c0,0 -1,0 0,-1l10 -26c0,0 0,-1 1,-1 0,0 0,1 1,1l9 26c0,0 0,1 -1,1l-19 0zm97 2c0,10 0,18 -1,23 0,3 -1,5 -3,6 -1,0 -2,0 -4,0 -1,0 -2,0 -2,1 0,1 1,1 2,1 4,0 11,0 13,0 3,0 9,0 16,0 1,0 2,0 2,-1 0,-1 -1,-1 -2,-1 -2,0 -4,0 -5,0 -3,0 -4,-3 -4,-6 -1,-5 -1,-13 -1,-23l0 -42c0,-1 0,-2 1,-2 1,0 2,0 4,0 2,0 7,1 10,4 6,5 6,12 6,16 0,11 -8,17 -14,17 -2,0 -3,0 -3,1 0,1 1,1 1,1 1,0 2,0 2,0 15,0 26,-11 26,-26 0,-6 -3,-10 -5,-13 -2,-2 -6,-6 -19,-6 -5,0 -11,0 -15,0 -3,0 -9,0 -15,0 -2,0 -2,0 -2,1 0,1 1,1 2,1 1,0 3,0 4,0 3,1 4,2 4,6 0,3 0,6 0,22l0 19zm68 0c0,10 0,18 -1,23 0,3 -1,5 -3,6 -1,0 -2,0 -4,0 -1,0 -2,0 -2,1 0,1 1,1 2,1 4,0 11,0 13,0 2,0 9,0 15,0 1,0 2,0 2,-1 0,-1 0,-1 -1,-1 -1,0 -4,0 -5,0 -3,0 -4,-3 -4,-6 -1,-4 -1,-13 -1,-23l0 -1c0,-1 0,-1 1,-1l9 0c1,0 1,0 2,1 1,2 6,9 10,15 6,8 10,13 14,16 3,1 5,2 11,2l10 0c1,0 2,0 2,-1 0,-1 0,-1 -1,-1 -1,0 -2,0 -3,0 -2,0 -6,-1 -12,-7 -6,-7 -13,-16 -22,-28 10,-9 14,-16 14,-24 0,-7 -4,-12 -7,-15 -6,-4 -13,-5 -19,-5 -3,0 -11,0 -15,0 -2,0 -9,0 -14,0 -2,0 -2,0 -2,1 0,1 1,1 2,1 1,0 3,0 4,0 3,1 4,2 4,6 0,3 0,6 0,22l0 19zm12 -42c0,-1 0,-1 1,-1 1,0 3,0 5,0 6,0 16,4 16,19 0,9 -3,14 -6,16 -2,1 -3,2 -7,2 -3,0 -6,0 -8,-1 -1,0 -1,-1 -1,-2l0 -32zm66 42c0,10 0,19 -1,23 0,3 -1,5 -3,5 -1,0 -2,0 -4,0 -1,0 -2,0 -2,1 0,1 1,1 2,1 4,0 11,0 13,0 3,0 9,0 16,0 1,0 2,0 2,-1 0,-1 -1,-1 -2,-1 -2,0 -4,0 -5,0 -3,0 -4,-2 -4,-5 0,-5 0,-13 0,-23l0 -19c0,-16 0,-19 0,-22 0,-4 1,-6 4,-6 1,0 2,0 3,0 1,0 2,0 2,-1 0,-1 -1,-1 -2,-1 -4,0 -10,0 -13,0 -3,0 -10,0 -13,0 -2,0 -2,0 -2,1 0,1 1,1 2,1 1,0 3,0 4,0 2,1 3,2 4,6 0,3 0,6 0,22l0 19zm63 26c2,5 3,6 4,6 1,0 2,-2 5,-8 2,-5 7,-17 14,-32 6,-13 8,-19 12,-29 3,-7 4,-9 6,-10 2,-1 4,-1 5,-1 1,0 2,0 2,-1 0,-1 -1,-1 -2,-1 -3,0 -8,0 -10,0 -1,0 -6,0 -11,0 -2,0 -3,0 -3,1 0,1 1,1 2,1 1,0 3,0 4,1 1,0 1,1 1,2 0,1 0,3 -1,4 -2,7 -16,41 -20,53l0 0 -18 -48c-1,-4 -2,-7 -2,-8 0,-1 0,-2 1,-2 1,-1 2,-1 4,-1 1,0 2,0 2,-1 0,-1 -1,-1 -2,-1 -5,0 -10,0 -13,0 -4,0 -10,0 -15,0 -2,0 -3,0 -3,1 0,1 0,1 1,1 1,0 2,0 4,0 4,1 6,2 8,8l26 65zm80 -23c1,0 1,0 1,1l8 22c1,1 0,2 -1,2 -1,0 -1,0 -1,1 0,1 1,1 3,1 8,0 16,0 20,0 4,0 5,0 5,-1 0,-1 -1,-1 -1,-1 -1,0 -3,0 -4,0 -2,-1 -5,-2 -9,-12 -7,-16 -23,-59 -26,-65 -1,-2 -2,-3 -3,-3 -1,0 -2,1 -3,4l-26 66c-2,5 -4,9 -9,10 -1,0 -2,0 -3,0 -1,0 -1,0 -1,1 0,1 1,1 2,1 5,0 11,0 12,0 3,0 8,0 11,0 1,0 2,0 2,-1 0,-1 0,-1 -2,-1l-2 0c-3,0 -4,-1 -4,-3 0,-1 1,-4 2,-6l6 -15c0,-1 0,-1 1,-1l23 0zm-21 -5c0,0 -1,0 0,-1l10 -26c0,0 0,-1 1,-1 0,0 0,1 1,1l9 26c0,0 0,1 -1,1l-19 0zm73 2c0,10 0,18 -1,23 0,3 -1,5 -3,6 -1,0 -2,0 -4,0 -1,0 -2,0 -2,1 0,1 1,1 2,1 4,0 11,0 13,0 3,0 9,0 16,0 1,0 2,0 2,-1 0,-1 -1,-1 -2,-1 -2,0 -4,0 -5,0 -3,0 -4,-3 -4,-6 -1,-5 -1,-13 -1,-23l0 -43 13 0c9,0 12,3 12,6l0 1c0,2 0,2 1,2 1,0 1,-1 1,-2 0,-3 0,-10 0,-12 0,-2 0,-2 -1,-2 0,0 -1,0 -3,1 -2,0 -4,1 -7,1l-41 0c-3,0 -7,0 -10,-1 -3,0 -4,-1 -4,-1 -1,0 -1,1 -1,2 0,1 -2,10 -2,12 0,1 0,2 1,2 1,0 1,0 1,-1 0,-1 1,-2 2,-4 2,-2 4,-3 10,-3l15 0 0 43zm60 0c0,10 0,18 -1,23 0,3 -1,5 -3,6 -1,0 -2,0 -4,0 -1,0 -2,0 -2,1 0,1 1,1 2,1 2,0 5,0 7,0 2,0 5,0 6,0 3,0 6,0 11,0 4,0 10,0 18,0 4,0 5,0 6,-3 1,-2 1,-9 1,-12 0,-1 0,-2 -1,-2 -1,0 -1,0 -1,2 -1,4 -2,7 -5,8 -3,1 -7,1 -10,1 -11,0 -12,-2 -12,-9 0,-3 0,-13 0,-16l0 -8c0,-1 0,-1 1,-1 2,0 13,0 15,0 4,0 5,2 6,4 0,1 0,3 0,4 0,1 0,1 1,1 1,0 1,-1 1,-2 0,-1 0,-5 0,-7 0,-5 1,-7 1,-8 0,-1 0,-1 -1,-1 -1,0 -1,1 -2,1 -1,1 -2,1 -5,2 -2,0 -14,0 -17,0 -1,0 -1,0 -1,-1l0 -27c0,-1 0,-1 1,-1 2,0 13,0 15,0 5,1 6,2 7,4 1,1 1,3 1,4 0,1 0,1 1,1 1,0 1,-1 1,-1 0,-1 0,-6 1,-7 0,-5 1,-6 1,-7 0,-1 0,-1 -1,-1 -1,0 -1,0 -2,0 -1,0 -2,0 -4,1 -2,0 -23,0 -26,0 -1,0 -4,0 -7,0 -3,0 -6,0 -8,0 -2,0 -2,0 -2,1 0,1 1,1 2,1 1,0 3,0 4,0 3,1 4,2 4,6 0,3 0,6 0,22l0 19zm110 -19c0,-16 0,-19 0,-22 0,-4 1,-6 4,-6 1,0 3,0 4,0 1,0 2,0 2,-1 0,-1 -1,-1 -2,-1 -4,0 -12,0 -14,0 -3,0 -9,0 -14,0 -2,0 -2,0 -2,1 0,1 1,1 2,1 1,0 3,0 3,0 3,1 4,2 4,6 0,3 0,6 0,22l0 19c0,10 0,18 -1,23 0,3 -1,5 -3,6 -1,0 -2,0 -4,0 -1,0 -2,0 -2,1 0,1 1,1 2,1 2,0 5,0 7,0 2,0 5,0 6,0 4,0 8,0 13,0 5,0 10,0 18,0 5,0 6,-1 7,-3 1,-3 2,-11 2,-12 0,-1 0,-2 -1,-2 -1,0 -1,1 -1,2 0,2 -1,5 -3,6 -3,3 -7,3 -12,3 -8,0 -11,-1 -13,-2 -2,-2 -2,-9 -2,-23l0 -19zm50 19c0,10 0,19 -1,23 0,3 -1,5 -3,5 -1,0 -2,0 -4,0 -1,0 -2,0 -2,1 0,1 1,1 2,1 4,0 11,0 13,0 3,0 9,0 16,0 1,0 2,0 2,-1 0,-1 -1,-1 -2,-1 -2,0 -4,0 -5,0 -3,0 -4,-2 -4,-5 0,-5 0,-13 0,-23l0 -19c0,-16 0,-19 0,-22 0,-4 1,-6 4,-6 1,0 2,0 3,0 1,0 2,0 2,-1 0,-1 -1,-1 -2,-1 -4,0 -10,0 -13,0 -3,0 -10,0 -13,0 -2,0 -2,0 -2,1 0,1 1,1 2,1 1,0 3,0 4,0 2,1 3,2 4,6 0,3 0,6 0,22l0 19z"></path> <path class="fil3" d="M1686 628c-1,4 -1,8 -4,8 -2,0 -2,0 -3,0 -1,0 -2,0 -2,1 0,1 1,1 2,1 3,0 8,0 10,0 2,0 7,0 11,0 2,0 2,0 2,-1 0,-1 -1,-1 -2,-1 -1,0 -2,0 -4,-1 -2,0 -3,-1 -3,-3 0,-2 0,-3 0,-5l5 -42 0 0c4,8 10,21 11,24 1,3 9,19 12,24 2,3 3,5 4,5 1,0 1,-1 4,-6l23 -48 0 0 6 47c0,3 0,4 -1,5 -1,0 -1,1 -1,1 0,1 1,1 3,1 4,0 18,1 21,1 1,0 3,0 3,-1 0,-1 -1,-1 -2,-1 -1,0 -3,0 -6,-1 -3,-1 -4,-4 -5,-11l-9 -65c0,-2 -1,-3 -2,-3 -1,0 -1,1 -2,3l-28 60 -28 -60c-1,-3 -2,-3 -3,-3 -1,0 -1,1 -2,3l-10 69zm115 -20c0,10 0,19 -1,23 0,3 -1,5 -3,5 -1,0 -2,0 -4,0 -1,0 -2,0 -2,1 0,1 1,1 2,1 4,0 11,0 13,0 3,0 9,0 16,0 1,0 2,0 2,-1 0,-1 -1,-1 -2,-1 -2,0 -4,0 -5,0 -3,0 -4,-2 -4,-5 0,-5 0,-13 0,-23l0 -19c0,-16 0,-19 0,-22 0,-4 1,-6 4,-6 1,0 2,0 3,0 1,0 2,0 2,-1 0,-1 -1,-1 -2,-1 -4,0 -10,0 -13,0 -3,0 -10,0 -13,0 -2,0 -2,0 -2,1 0,1 1,1 2,1 1,0 3,0 4,0 2,1 3,2 4,6 0,3 0,6 0,22l0 19zm61 0c0,10 0,18 -1,23 0,3 -1,5 -3,6 -1,0 -2,0 -4,0 -1,0 -2,0 -2,1 0,1 1,1 2,1 4,0 11,0 13,0 3,0 9,0 16,0 1,0 2,0 2,-1 0,-1 -1,-1 -2,-1 -2,0 -4,0 -5,0 -3,0 -4,-3 -4,-6 -1,-5 -1,-13 -1,-23l0 -43 13 0c9,0 12,3 12,6l0 1c0,2 0,2 1,2 1,0 1,-1 1,-2 0,-3 0,-10 0,-12 0,-2 0,-2 -1,-2 0,0 -1,0 -3,1 -2,0 -4,1 -7,1l-41 0c-3,0 -7,0 -10,-1 -3,0 -4,-1 -4,-1 -1,0 -1,1 -1,2 0,1 -2,10 -2,12 0,1 0,2 1,2 1,0 1,0 1,-1 0,-1 1,-2 2,-4 2,-2 4,-3 10,-3l15 0 0 43zm60 0c0,10 0,18 -1,23 0,3 -1,5 -3,6 -1,0 -2,0 -4,0 -1,0 -2,0 -2,1 0,1 1,1 2,1 2,0 5,0 7,0 2,0 5,0 6,0 3,0 6,0 11,0 4,0 10,0 18,0 4,0 5,0 6,-3 1,-2 1,-9 1,-12 0,-1 0,-2 -1,-2 -1,0 -1,0 -1,2 -1,4 -2,7 -5,8 -3,1 -7,1 -10,1 -11,0 -12,-2 -12,-9 0,-3 0,-13 0,-16l0 -8c0,-1 0,-1 1,-1 2,0 13,0 15,0 4,0 5,2 6,4 0,1 0,3 0,4 0,1 0,1 1,1 1,0 1,-1 1,-2 0,-1 0,-5 0,-7 0,-5 1,-7 1,-8 0,-1 0,-1 -1,-1 -1,0 -1,1 -2,1 -1,1 -2,1 -5,2 -2,0 -14,0 -17,0 -1,0 -1,0 -1,-1l0 -27c0,-1 0,-1 1,-1 2,0 13,0 15,0 5,1 6,2 7,4 1,1 1,3 1,4 0,1 0,1 1,1 1,0 1,-1 1,-1 0,-1 0,-6 1,-7 0,-5 1,-6 1,-7 0,-1 0,-1 -1,-1 -1,0 -1,0 -2,0 -1,0 -2,0 -4,1 -2,0 -23,0 -26,0 -1,0 -4,0 -7,0 -3,0 -6,0 -8,0 -2,0 -2,0 -2,1 0,1 1,1 2,1 1,0 3,0 4,0 3,1 4,2 4,6 0,3 0,6 0,22l0 19zm66 0c0,10 0,18 -1,23 0,3 -1,5 -3,6 -1,0 -2,0 -4,0 -1,0 -2,0 -2,1 0,1 1,1 2,1 2,0 5,0 7,0 2,0 5,0 6,0 3,0 6,0 10,1 4,0 8,1 12,1 19,0 30,-8 35,-12 6,-6 11,-16 11,-30 0,-13 -5,-21 -10,-27 -11,-12 -29,-12 -42,-12 -6,0 -13,0 -16,0 -3,0 -9,0 -15,0 -2,0 -2,0 -2,1 0,1 1,1 2,1 1,0 3,0 4,0 3,1 4,2 4,6 0,3 0,6 0,22l0 19zm13 -20c0,-8 0,-18 0,-21 0,-1 0,-2 1,-2 1,0 5,-1 7,-1 8,0 20,1 29,11 4,4 10,13 10,26 0,11 -2,21 -9,26 -6,6 -13,8 -24,8 -8,0 -12,-2 -14,-4 -1,-1 -1,-5 -1,-8 0,-2 0,-10 0,-21l0 -13z"></path> </g> </g> </g> </svg> 